<svg width="470.40000000000003" height="225.71784509569775" viewBox="0 0 350 167.9448252200132" class="looka-1j8o68f"><defs id="SvgjsDefs1332"></defs><g id="SvgjsG1333" featurekey="rDwwlG-0" transform="matrix(1.4252263498116224,0,0,1.4252263498116224,103.80280981858617,-23.627083112624856)" fill="#6356e5"><path xmlns="http://www.w3.org/2000/svg" fill="#6356e5" d="M99.04,20.58c-0.01-0.06-0.01-0.12-0.03-0.18c-0.02-0.05-0.06-0.09-0.09-0.13c-0.03-0.05-0.06-0.1-0.1-0.14  s-0.09-0.07-0.141-0.1c-0.04-0.03-0.08-0.06-0.13-0.08c-0.05-0.03-0.109-0.03-0.17-0.04c-0.05-0.01-0.1-0.03-0.16-0.03l-6.21-0.04  l-0.81-1.22c0-0.01-0.01-0.01-0.01-0.02c-0.021-0.02-0.04-0.04-0.061-0.06c-0.03-0.04-0.07-0.07-0.11-0.1  c-0.02-0.02-0.039-0.05-0.069-0.07c-0.021-0.01-0.05-0.02-0.07-0.03c-0.04-0.02-0.09-0.04-0.14-0.05  c-0.03-0.01-0.07-0.03-0.101-0.04c-0.01,0-0.01,0-0.02-0.01C71.93,15.31,56.3,16.39,50.8,21c-0.44,0.37-0.8,0.75-1.09,1.15  c-0.3-0.42-0.67-0.83-1.13-1.21c-4.3-3.61-16.89-6.21-39.3-2.7c-0.01,0.01-0.01,0.01-0.02,0.01c-0.03,0.01-0.06,0.03-0.1,0.04  c-0.05,0.01-0.09,0.03-0.14,0.05C9,18.35,8.97,18.36,8.95,18.37c-0.02,0.02-0.04,0.05-0.07,0.07c-0.04,0.03-0.08,0.06-0.11,0.1  L8.71,18.6c0,0.01-0.01,0.01-0.01,0.02l-0.81,1.22l-6.2,0.04c-0.06,0-0.11,0.02-0.16,0.03c-0.06,0.01-0.12,0.01-0.17,0.04  C1.31,19.96,1.28,20,1.24,20.03c-0.06,0.03-0.11,0.06-0.16,0.1C1.05,20.16,1.03,20.21,1,20.25c-0.03,0.05-0.07,0.09-0.1,0.15  c-0.02,0.05-0.02,0.11-0.03,0.16c-0.01,0.06-0.03,0.11-0.03,0.17v61.31c0,0.06,0.02,0.1,0.03,0.15C0.88,82.25,0.88,82.3,0.9,82.35  c0.02,0.061,0.05,0.101,0.08,0.15c0.03,0.04,0.06,0.09,0.09,0.13c0.04,0.04,0.09,0.07,0.13,0.101c0.05,0.029,0.09,0.069,0.14,0.09  c0.05,0.02,0.11,0.029,0.16,0.04c0.05,0.01,0.09,0.04,0.15,0.04c10.33,0.55,19.34-0.78,26.58-1.851c6.4-0.95,11.46-1.7,13.12-0.26  c0.28,0.24,0.65,0.68,0.65,1.76c0,0.47,0.38,0.851,0.86,0.851h14.19c0.47,0,0.851-0.381,0.851-0.851c0-1.069,0.369-1.52,0.649-1.76  c1.67-1.44,6.73-0.69,13.13,0.26c7.24,1.07,16.25,2.4,26.58,1.851c0.061,0,0.101-0.03,0.15-0.04c0.05-0.011,0.109-0.021,0.16-0.04  c0.05-0.021,0.1-0.061,0.14-0.101c0.04-0.029,0.09-0.05,0.12-0.09c0.05-0.04,0.07-0.09,0.1-0.14c0.03-0.05,0.061-0.09,0.08-0.13  c0.021-0.061,0.03-0.12,0.03-0.181c0.01-0.04,0.03-0.09,0.03-0.14V20.73C99.07,20.68,99.05,20.63,99.04,20.58z M91.32,21.91l1.989,3  v48.82l-2.34-3.36L91.32,21.91z M92.59,75.7c-7.229,0.43-12.54-0.38-17.24-1.101C67.7,73.41,61.65,72.48,52.13,78.03h-1.22  c0.3-1.49,1.32-3.021,2.92-4.32c3.58-2.91,12.99-7.05,35.78-2.3L92.59,75.7z M50.56,24.63c0-0.01,0-0.01,0-0.02  c0.021-0.79,0.471-1.56,1.341-2.29c4.159-3.49,17.42-5.58,37.72-2.49L89.27,69.59c-22.979-4.66-32.739-0.28-36.52,2.79  c-0.77,0.62-1.42,1.3-1.95,2.01l-0.24-49.74C50.56,24.64,50.56,24.64,50.56,24.63z M47.48,22.25c0.89,0.75,1.35,1.54,1.37,2.36v0.05  l0.23,49.68c-0.53-0.689-1.16-1.35-1.91-1.96c-3.78-3.07-13.54-7.45-36.53-2.79l-0.36-49.76C31.68,16.57,43.69,19.08,47.48,22.25z   M10.3,71.41c22.79-4.76,32.21-0.61,35.79,2.3c1.61,1.3,2.63,2.83,2.92,4.32h-1.24c-9.51-5.55-15.56-4.62-23.21-3.431  c-4.7,0.721-10.01,1.53-17.24,1.101L10.3,71.41z M8.58,21.91l0.36,48.46L6.6,73.73V24.91L8.58,21.91z"></path></g><g id="SvgjsG1334" featurekey="4AZ1rv-0" transform="matrix(3.6164497253008006,0,0,3.6164497253008006,-2.5315141179275167,94.60322230769401)" fill="#6356e5"><path d="M9.84 15.36 l3.06 0.86 c-0.38 2.3 -2.1 4.06 -5.62 4.06 c-4.64 0 -6.58 -3.04 -6.58 -7 c0 -4.26 2.3 -6.78 6.6 -6.78 c3.6 0 5.62 1.76 5.42 4.3 l-3.3 0.74 c0.08 -1.42 -0.42 -2.26 -2.2 -2.26 c-2.3 0 -2.98 1.34 -2.98 3.98 c0 2.92 0.9 4.24 2.96 4.24 c1.3 0 2.62 -0.56 2.64 -2.14 z M20.240000000000002 20 l0 -5.34 c0 -1.1 -0.26 -1.64 -0.9 -1.64 c-1.12 0 -1.68 1.44 -1.84 2 l0 4.98 l-3.12 0 l0 -14.36 l3.12 0 l0 6.12 c0.38 -0.6 1.2 -1.38 2.88 -1.38 c1.38 0 2.98 0.56 2.98 3.48 l0 6.14 l-3.12 0 z M33.94 20.1 c-2.14 0.34 -2.98 -0.52 -3.24 -1.22 c-0.48 0.68 -1.2 1.4 -2.66 1.4 c-1.7 0 -3.16 -0.96 -3.16 -2.74 c0 -2.16 2.14 -3.14 5.4 -3.16 l0 -0.28 c0 -1.06 -0.26 -1.44 -1.02 -1.44 c-0.72 0 -1.06 0.34 -0.96 1.24 l-3.1 -0.58 c-0.2 -1.62 1.24 -2.94 4.28 -2.94 c2.86 0 3.92 1.18 3.92 3.76 l0 2.2 c0 1.02 0.04 1.54 1.1 1.3 z M30.28 16.88 l0 -0.74 c-1.22 0.02 -2.26 0.24 -2.26 1.16 c0 0.52 0.34 0.76 0.86 0.76 c0.6 0 1.32 -0.32 1.4 -1.18 z M35.14 13 l0 -2.34 l1.18 0 l0.18 -2.56 l2.9 0 l0 2.56 l2.56 0 l0 2.34 l-2.56 0 l0 3.96 c0 0.46 0.14 0.74 0.54 0.74 c0.5 0 0.6 -0.56 0.64 -1.12 l2.28 0.8 c-0.4 1.58 -1.02 2.82 -3.3 2.82 c-2.48 0 -3.28 -1.58 -3.28 -3.24 l0 -3.96 l-1.14 0 z M44.2 20 l0 -13.22 l8.76 0 l0 2.86 l-5.4 0 l0 2.28 l4.34 0 l0 2.86 l-4.34 0 l0 2.36 l5.52 0 l0 2.86 l-8.88 0 z M54.92 20 l0 -14.36 l3.12 0 l0 5.64 c0.46 -0.44 1.08 -0.9 2.34 -0.9 c2.82 0 4 2.3 4 4.8 c0 2.82 -1.5 5.1 -4.16 5.1 c-1.44 0 -2.22 -0.64 -2.7 -1.52 l-0.08 1.24 l-2.52 0 z M59.540000000000006 17.96 c0.9 0 1.6 -0.86 1.6 -2.7 c0 -1.42 -0.42 -2.56 -1.54 -2.56 s-1.58 1.14 -1.58 2.6 c0 1.28 0.36 2.66 1.52 2.66 z M70.5 20.28 c-3.78 0 -4.92 -2.34 -4.92 -5.02 c0 -2.62 1.08 -4.88 4.86 -4.88 c3.86 0 4.88 2.34 4.88 4.92 c0 2.74 -1.14 4.98 -4.82 4.98 z M70.46000000000001 17.96 c1.36 0 1.62 -1.26 1.62 -2.62 s-0.26 -2.64 -1.64 -2.64 c-1.36 0 -1.62 1.28 -1.62 2.6 c0 1.34 0.26 2.66 1.64 2.66 z M81.46 20.28 c-3.78 0 -4.92 -2.34 -4.92 -5.02 c0 -2.62 1.08 -4.88 4.86 -4.88 c3.86 0 4.88 2.34 4.88 4.92 c0 2.74 -1.14 4.98 -4.82 4.98 z M81.42 17.96 c1.36 0 1.62 -1.26 1.62 -2.62 s-0.26 -2.64 -1.64 -2.64 c-1.36 0 -1.62 1.28 -1.62 2.6 c0 1.34 0.26 2.66 1.64 2.66 z M93.74000000000001 20 l-2.48 -3.84 l-0.2 0 l0 3.84 l-3.12 0 l0 -14.36 l3.12 0 l0 8.16 l0.28 0 l2.22 -3.14 l3.92 0 l-3.38 4.42 l3.38 4.92 l-3.74 0 z"></path></g></svg>
